<?xml version="1.0" encoding="UTF-8" standalone="no"?>
	<svg xmlns:svg="http://www.w3.org/2000/svg" xmlns="http://www.w3.org/2000/svg"
	xmlns:xlink="http://www.w3.org/1999/xlink" version="1.0"
	 width="582" height="582" id="svg2232">

<defs>
<linearGradient id="linearGradient1" x1="0.0" y1="0.5" x2="1.0" y2="0.5">
	<stop stop-color="#d4e5f5" stop-opacity="1.0" offset="0.00" />
	<stop stop-color="#f00000" stop-opacity="1.0" offset="1.0" />
</linearGradient>

<linearGradient id="linearGradient2" x1="0.00991199407035%" y1="0%" x2="100%" y2="0%">
	<stop stop-color="#f2f0f7" stop-opacity="0.999426486715" offset="99.9958353206%" />
</linearGradient>

<linearGradient id="linearGradient8" x1="0%" y1="0%" x2="100%" y2="-0.848754458654%">
	<stop stop-color="#d8e3f0" stop-opacity="0.999120952399" offset="99.479437641%" />
</linearGradient>

<linearGradient id="linearGradient3" x1="0%" y1="0%" x2="100%" y2="0%">
	<stop stop-color="#0d1a00" stop-opacity="0.983358400847" offset="0.00886001742884%" />
</linearGradient>

<radialGradient id="radialGradient1" cx="0.5" cy="0.5" fx="0.5" fy="0.5" r="0.1" >
	<stop stop-color="#d4e5f5" stop-opacity="1.0" offset="0.00" />
	<stop stop-color="#f00000" stop-opacity="1.0" offset="1.0" />
</radialGradient>


</defs>

<path id = "path1" d="M 
487.0516,299.3907 C 478.0197,347.4805
 533.8637,377.8641 471.6724,438.3157 C 420.4876,456.1031
 308.2588,445.4103 240.2491,446.3755 C 183.1142,432.6433
 162.3738,418.0227 152.5358,339.0367 C 66.6463,351.6546
 0.8752,366.4002 11.6462,306.8138 C 24.5146,260.1095
 64.147,82.133 119.1997,49.5921 C 193.6624,0.8436
 235.3409,116.4617 296.2874,126.1129 C 367.8495,133.2022
 497.2016,150.2674 537.5201,187.835 C 582.7689,230.3283
 498.7538,268.7405 487.0516,299.3907 z"
 style="fill:url(#radialGradient1);fill-rule:evenodd;stroke:#000000;stroke-width:0.7518;stroke-opacity:0.999999960801" />

<path id = "path2" d="M 
225.7158,178.7298 C 224.1543,184.7463
 217.2615,192.6763 207.9868,196.8255 C 197.8727,201.0267
 185.4578,208.4729 171.7511,207.4566 C 159.8489,206.5799
 148.8734,198.7591 141.4163,194.3306 C 132.0451,188.7797
 126.116,181.3663 128.1863,173.389 C 130.1187,165.9435
 137.8582,158.93 148.7079,155.4198 C 158.5966,150.9705
 171.3562,147.4651 184.8525,148.5402 C 197.1219,149.4504
 215.3603,153.91 222.9363,159.3525 C 230.2473,164.6047
 227.1131,169.8003 225.7158,178.7298 z"
 style="fill:url(#linearGradient2);fill-rule:evenodd;stroke:#000000;stroke-width:0.648;stroke-opacity:0.998985961434" />

<path id = "path8" d="M 
127.176,171.8254 C 129.1092,164.3779
 137.7891,158.7191 148.7414,154.699 C 158.583,150.958
 171.0322,153.5964 183.9292,154.5526 C 195.6977,155.4252
 210.9315,153.8753 218.5075,159.3178 C 225.8185,164.57
 125.1057,179.8027 127.176,171.8254 z"
 style="fill:url(#linearGradient8);fill-rule:evenodd;stroke:#000000;stroke-width:0.648;stroke-opacity:0.999736207787" />

<path id = "path3" d="M 
177.2821,183.4384 C 175.6139,189.9139
 161.9567,195.7001 149.9308,194.8018 C 138.0598,194.0869
 130.6976,186.5026 132.3658,180.0271 C 133.874,174.1828
 144.2165,170.2813 156.2924,171.1222 C 168.2329,172.0139
 178.805,176.9994 177.2821,183.4384 z"
 style="fill:url(#radialGradient3);fill-rule:evenodd;stroke:#000000;stroke-width:0.648;stroke-opacity:1" />

<path id = "path4" d="M 
60.6005,327.0498 C 80.5891,331.992 99.7183,337.6165 118.551,339.443 C 145.4217,340.3995
 162.7043,333.8558 179.2653,331.7157 C 210.9086,326.72
 255.1662,318.9623 263.3923,310.0457 C 272.4188,308.1641
 288.8775,308.3334 297.1814,295.1304 C 302.1253,285.8156
 306.0157,269.4503 299.8919,253.761" style="fill:none;stroke:#000000;stroke-width:2;stroke-opacity:1" />

<path id = "path5" d="M 
263.0882,251.1066 C 274.197,255.1205 287.1087,256.6347 300.509,253.4426 C 306.0138,252.4055
 310.9742,248.9452 316.0393,244.6554 C 321.3046,240.1961
 325.47,234.3439 325.9309,228.0896" style="fill:none;stroke:#000000;stroke-width:1;stroke-opacity:1" />

</svg>